<svg width="159" height="91" viewBox="0 0 159 91" fill="none" xmlns="http://www.w3.org/2000/svg">
<path d="M98.9149 9.01976H96.8339V12.6045H98.9479C100.137 12.6045 101.591 12.2741 101.591 10.7543C101.591 9.44927 100.533 9.03627 98.9314 9.03627M98.6672 3.00659H96.8174V6.24445H98.8488C100.253 6.24445 101.062 5.64974 101.062 4.54292C101.062 3.4361 100.253 3.0231 98.6672 3.0231M99.3939 15.6607H93.1838V0H99.3939C101.805 0 104.696 0.859025 104.696 4.03081C104.696 5.74886 103.655 6.90523 102.136 7.41734V7.4669C103.919 7.78078 105.323 9.0528 105.323 11.1178C105.323 14.5208 102.35 15.6772 99.3774 15.6772" fill="#31D2CC"/>
<path d="M113.218 10.8534H112.755C111.17 10.8534 109.386 11.0517 109.386 12.3567C109.386 13.1992 110.228 13.4801 110.955 13.4801C112.408 13.4801 113.218 12.588 113.218 11.2169V10.8369V10.8534ZM106.595 6.14531C107.866 4.92285 109.7 4.2951 111.483 4.2951C115.15 4.2951 116.521 6.11227 116.521 10.11V15.6607H113.218V14.4878H113.152C112.607 15.3963 111.351 15.925 110.047 15.925C108.312 15.925 106.066 15.0659 106.066 12.4724C106.066 9.28405 109.914 8.75542 113.102 8.75542V8.57371C113.102 7.48341 112.243 6.98782 111.12 6.98782C110.08 6.98782 109.072 7.49993 108.411 8.11116L106.595 6.14531Z" fill="#31D2CC"/>
<path d="M125.506 15.6607V9.64753C125.506 8.42507 125.175 7.33477 123.871 7.33477C122.566 7.33477 121.938 8.44159 121.938 9.69709V15.6607H118.305V4.64206H121.806V6.16187H121.856C122.368 5.18721 123.623 4.32819 125.142 4.32819C128.082 4.32819 129.139 6.62442 129.139 8.83806V15.6442H125.506V15.6607Z" fill="#31D2CC"/>
<path d="M138.537 8.21027C138.14 7.68164 137.347 7.33473 136.621 7.33473C135.101 7.33473 134.094 8.63979 134.094 10.1596C134.094 11.6794 135.085 12.9679 136.67 12.9679C137.397 12.9679 138.19 12.6871 138.619 12.142L140.618 14.6034C139.709 15.4955 138.173 16.0241 136.571 16.0241C133.119 16.0241 130.427 13.8105 130.427 10.1596C130.427 6.50874 133.136 4.2951 136.538 4.2951C138.107 4.2951 139.742 4.88981 140.601 5.78188L138.52 8.21027H138.537Z" fill="#31D2CC"/>
<path d="M146.695 7.30169C144.994 7.30169 144.119 8.68934 144.119 10.11C144.119 11.5307 145.027 12.9679 146.712 12.9679C148.396 12.9679 149.305 11.5307 149.305 10.11C149.305 8.68934 148.38 7.30169 146.695 7.30169ZM146.695 16.0076C143.392 16.0076 140.617 13.7113 140.617 10.11C140.617 6.50874 143.392 4.2951 146.695 4.2951C149.999 4.2951 152.79 6.50874 152.79 10.11C152.79 13.7113 150.015 16.0076 146.695 16.0076Z" fill="#31D2CC"/>
<path d="M30.1253 76.2054C20.8433 76.2384 13.8239 68.8046 13.7909 58.9258C13.7579 49.047 20.7442 41.5801 30.0262 41.5471C39.2586 41.514 46.2284 48.9479 46.2614 58.8267C46.2945 68.7055 39.3577 76.1724 30.1253 76.2054ZM31.1327 27.4392C25.5503 27.4558 20.579 29.0086 16.3509 32.0482L13.7083 33.948L13.6257 4.32819L0 8.42507V88.9751H13.8735V83.9201L16.516 85.8033C20.7607 88.8099 25.732 90.3297 31.3144 90.3132C47.1368 90.2637 59.9533 76.1228 59.9037 58.7936C59.8542 41.4645 46.9386 27.4062 31.1327 27.4558" fill="#31D2CC"/>
<path d="M88.6746 52.3839L87.1387 51.8057C80.6809 49.4104 77.8071 47.7749 77.8071 44.4214C77.8071 40.7705 81.3911 39.482 84.7603 39.482C88.1296 39.482 92.3577 40.6054 92.3577 45.9412V48.7991H106.05V45.9412C106.05 34.3113 97.296 26.1837 84.7603 26.1837C71.2502 26.1837 64.1979 35.3521 64.1979 44.4214C64.1979 57.3398 74.8177 61.1559 83.3565 64.2285L84.2318 64.5424C90.8217 67.0038 93.9763 68.6888 93.9763 71.6789C93.9763 75.561 89.6656 76.9487 85.966 76.9487C81.6223 76.9487 76.4197 75.6932 76.4197 69.68V66.6239H62.7114V69.68C62.7114 82.0202 72.0595 90.3131 85.9495 90.3131C98.5182 90.3131 107.652 82.4828 107.652 71.6789C107.652 59.4213 97.1143 55.5061 88.6581 52.3674" fill="#31D2CC"/>
<path d="M159 82.3837C159 83.4079 158.174 84.2339 157.167 84.2339C156.159 84.2339 155.317 83.4079 155.317 82.3837C155.317 81.3594 156.143 80.5335 157.167 80.5335C158.191 80.5335 159 81.3594 159 82.3837ZM138.371 81.0786H153.153V75.7427H132.046L141.212 66.7725C148.644 59.5369 152.113 53.0282 152.113 46.3212C152.113 36.3102 145.06 26.1837 131.583 26.1837C121.509 26.1837 110.657 32.5107 110.657 46.4038V48.7991H124.201V46.4038C124.201 41.7617 126.711 39.4159 131.666 39.4159C134.969 39.4159 138.504 41.2331 138.504 46.3212C138.504 50.4015 134.474 54.8618 131.418 57.8684L118.007 71.299C113.3 76.0071 110.674 82.3506 110.674 88.9585H153.186V83.6887H138.404C137.678 83.6887 137.083 83.094 137.083 82.3671C137.083 81.6403 137.678 81.0456 138.404 81.0456" fill="#31D2CC"/>
</svg>
